<?xml version="1.0" encoding="UTF-8" standalone="no"?>
<!-- Created with Inkscape (http://www.inkscape.org/) -->

<svg
   width="41.753525mm"
   height="38.763531mm"
   viewBox="0 0 41.753525 38.763531"
   version="1.1"
   id="svg1"
   inkscape:version="1.3 (0e150ed6c4, 2023-07-21)"
   sodipodi:docname="Icons.svg"
   xmlns:inkscape="http://www.inkscape.org/namespaces/inkscape"
   xmlns:sodipodi="http://sodipodi.sourceforge.net/DTD/sodipodi-0.dtd"
   xmlns="http://www.w3.org/2000/svg"
   xmlns:svg="http://www.w3.org/2000/svg">
  <sodipodi:namedview
     id="namedview1"
     pagecolor="#505050"
     bordercolor="#eeeeee"
     borderopacity="1"
     inkscape:showpageshadow="0"
     inkscape:pageopacity="0"
     inkscape:pagecheckerboard="0"
     inkscape:deskcolor="#d1d1d1"
     inkscape:document-units="mm"
     inkscape:zoom="1.0936111"
     inkscape:cx="382.21996"
     inkscape:cy="69.95174"
     inkscape:window-width="1842"
     inkscape:window-height="1051"
     inkscape:window-x="69"
     inkscape:window-y="-9"
     inkscape:window-maximized="1"
     inkscape:current-layer="layer1" />
  <defs
     id="defs1" />
  <g
     inkscape:label="Layer 1"
     inkscape:groupmode="layer"
     id="layer1"
     transform="translate(-103.44105,62.956942)">
    <path
       id="rect45"
       style="fill:#ffffff;fill-opacity:1;stroke:none;stroke-width:1;stroke-linecap:round;stroke-linejoin:round;stroke-dasharray:none;stroke-opacity:1;paint-order:markers stroke fill"
       d="m 128.27365,-62.956943 a 13.888659,13.888659 0 0 0 -13.88908,13.88856 h 9.29246 a 4.5962396,4.5962396 0 0 1 4.59662,-4.5961 4.5962396,4.5962396 0 0 1 4.5961,4.5961 v 3.66127 h 9.29245 v -3.66127 a 13.888659,13.888659 0 0 0 -13.88855,-13.88856 z m -21.53202,17.10955 c -1.82869,0 -3.30058,1.47189 -3.30058,3.30057 v 3.30109 5.59398 6.15724 c 0,1.82868 1.47189,3.3011 3.30058,3.3011 h 35.15186 c 1.82867,0 3.30109,-1.47242 3.30109,-3.3011 v -11.75122 c 0,-1.82868 -1.47242,-3.30109 -3.30109,-3.30109 h -12.78734 c 0,-1.82868 -1.4724,-3.30057 -3.30109,-3.30057 z" />
  </g>
</svg>
