<?xml version="1.0" encoding="UTF-8" standalone="no"?>
<!-- Created with Inkscape (http://www.inkscape.org/) -->

<svg
   width="31.227543mm"
   height="29.200237mm"
   viewBox="0 0 31.227543 29.200237"
   version="1.1"
   id="svg1"
   inkscape:version="1.3 (0e150ed6c4, 2023-07-21)"
   sodipodi:docname="Icons.svg"
   xmlns:inkscape="http://www.inkscape.org/namespaces/inkscape"
   xmlns:sodipodi="http://sodipodi.sourceforge.net/DTD/sodipodi-0.dtd"
   xmlns="http://www.w3.org/2000/svg"
   xmlns:svg="http://www.w3.org/2000/svg">
  <sodipodi:namedview
     id="namedview1"
     pagecolor="#505050"
     bordercolor="#eeeeee"
     borderopacity="1"
     inkscape:showpageshadow="0"
     inkscape:pageopacity="0"
     inkscape:pagecheckerboard="0"
     inkscape:deskcolor="#d1d1d1"
     inkscape:document-units="mm"
     inkscape:zoom="1.0936111"
     inkscape:cx="382.21996"
     inkscape:cy="69.95174"
     inkscape:window-width="1842"
     inkscape:window-height="1051"
     inkscape:window-x="69"
     inkscape:window-y="-9"
     inkscape:window-maximized="1"
     inkscape:current-layer="layer1" />
  <defs
     id="defs1">
    <inkscape:path-effect
       effect="fillet_chamfer"
       id="path-effect25"
       is_visible="true"
       lpeversion="1"
       nodesatellites_param="F,0,0,1,0,1.5875,0,1 @ F,0,0,1,0,1.5875,0,1 @ F,0,0,1,0,1.5875,0,1"
       radius="6"
       unit="px"
       method="auto"
       mode="F"
       chamfer_steps="1"
       flexible="false"
       use_knot_distance="true"
       apply_no_radius="true"
       apply_with_radius="true"
       only_selected="false"
       hide_knots="false" />
  </defs>
  <rect
     style="display:none;opacity:1;fill:#252525;fill-opacity:1;stroke:none;stroke-width:1.47978;stroke-linecap:round;stroke-linejoin:round;stroke-dasharray:none;stroke-opacity:1;paint-order:markers stroke fill"
     id="rect38"
     width="170.18097"
     height="212.76863"
     x="-107.09561"
     y="-15.298282" />
  <g
     inkscape:label="Layer 1"
     inkscape:groupmode="layer"
     id="layer1"
     transform="translate(-126.49652,-22.898643)">
    <g
       id="g38"
       style="display:none">
      <circle
         style="opacity:1;fill:#ffffff;fill-opacity:1;stroke:none;stroke-width:1;stroke-linecap:round;stroke-linejoin:round;stroke-dasharray:none;stroke-opacity:1;paint-order:markers stroke fill"
         id="path20"
         cx="137.87527"
         cy="25.599096"
         r="14.600053" />
      <circle
         style="opacity:1;fill:#6f3838;fill-opacity:1;stroke:none;stroke-width:1;stroke-linecap:round;stroke-linejoin:round;stroke-dasharray:none;stroke-opacity:1;paint-order:markers stroke fill"
         id="path21"
         cx="137.87527"
         cy="25.599096"
         r="8.8235111" />
      <circle
         style="opacity:1;fill:#6f3838;fill-opacity:1;stroke:none;stroke-width:1.01953;stroke-linecap:round;stroke-linejoin:round;stroke-dasharray:none;stroke-opacity:1;paint-order:markers stroke fill"
         id="path22"
         cx="149.58707"
         cy="25.599096"
         r="2.8882742" />
      <path
         style="fill:#103e86;fill-opacity:1;stroke:none;stroke-width:0.264583px;stroke-linecap:butt;stroke-linejoin:miter;stroke-opacity:1"
         d="m 137.99852,95.06623 5.81863,-3.983083 a 1.086704,1.086704 89.999982 0 0 0,-1.793455 l -5.81863,-3.983077 a 0.83711593,0.83711593 152.19655 0 0 -1.30998,0.690773 v 8.37807 a 0.83711528,0.83711528 27.803431 0 0 1.30998,0.690772 z"
         id="path25"
         inkscape:path-effect="#path-effect25"
         inkscape:original-d="m 136.68854,95.962958 8.43859,-5.776539 -8.43859,-5.776531 z"
         transform="translate(-2.4023437e-6,-52.977405)" />
    </g>
    <path
       d="m 157.72182,37.755472 c 0.0122,-0.695196 -0.0254,-1.390371 -0.11227,-2.080209 -0.0868,-0.689824 -0.22287,-1.372566 -0.40701,-2.043009 -0.18416,-0.670455 -0.41598,-1.3269 -0.69369,-1.964321 -0.27751,-0.637385 -0.60019,-1.254157 -0.96557,-1.84557 -0.36559,-0.591401 -0.77296,-1.155942 -1.21899,-1.6893 -0.44609,-0.533304 -0.92972,-1.03406 -1.44717,-1.498454 -0.51734,-0.464503 -1.06721,-0.891469 -1.64539,-1.27763 -0.57835,-0.385877 -1.18324,-0.730443 -1.81047,-1.030381 -0.62713,-0.299711 -1.27484,-0.554324 -1.93822,-0.76179 -0.66355,-0.207603 -1.34108,-0.367541 -2.02743,-0.478596 -0.68636,-0.11108 -1.37978,-0.173044 -2.07497,-0.185339 -0.69519,-0.01215 -1.39036,0.02536 -2.0802,0.112273 -0.68983,0.08688 -1.37257,0.222874 -2.04301,0.407008 -0.67044,0.18399 -1.32688,0.415647 -1.96431,0.693176 -0.63741,0.277673 -1.25418,0.600528 -1.84559,0.966088 -0.5914,0.365587 -1.15593,0.772952 -1.68929,1.218987 -0.53328,0.445927 -1.03404,0.929379 -1.49844,1.446655 -0.46451,0.517339 -0.89148,1.06721 -1.27763,1.645394 -0.38614,0.57819 -0.73047,1.183214 -1.03038,1.810473 -0.29995,0.627266 -0.55471,1.275153 -0.76233,1.938714 -0.20743,0.663569 -0.36719,1.341111 -0.47807,2.027443 -0.0355,0.295668 -0.0619,0.592356 -0.0792,0.889648 l -1.28396,-0.02258 c -0.15246,-0.0026 -0.3027,0.03628 -0.43458,0.112775 -0.13185,0.0765 -0.24031,0.187526 -0.3137,0.321135 -0.0733,0.133437 -0.10884,0.284337 -0.10277,0.436471 0.006,0.152258 0.0534,0.299989 0.13721,0.427268 l 2.3031,3.49508 1.57719,2.392818 c 0.0484,0.07344 0.10553,0.140743 0.17015,0.200418 0.0646,0.05967 0.13625,0.111273 0.21333,0.153648 0.0773,0.04238 0.15917,0.0756 0.24431,0.09827 0.085,0.02247 0.17243,0.03466 0.26038,0.03608 0.0879,0.0016 0.17573,-0.0074 0.26147,-0.0269 0.0859,-0.01981 0.16901,-0.04984 0.2476,-0.08967 0.0785,-0.03961 0.15191,-0.08874 0.21861,-0.146038 0.0668,-0.05731 0.12649,-0.122583 0.17759,-0.194315 l 2.37263,-3.338956 1.71177,-2.408883 c 0.0884,-0.12419 0.14115,-0.270173 0.15265,-0.422174 10e-4,-0.01892 0.002,-0.03785 0.002,-0.05673 8.4e-4,-0.132709 -0.0297,-0.264117 -0.0899,-0.383012 -0.0686,-0.136122 -0.17313,-0.250888 -0.3022,-0.331967 -0.12891,-0.08108 -0.27756,-0.125246 -0.42984,-0.127975 l -1.28602,-0.02262 c 0.0153,-0.178364 0.036,-0.356219 0.0621,-0.533325 0.12277,-0.564779 0.30073,-1.116139 0.53132,-1.646105 0.23056,-0.530003 0.51263,-1.036081 0.84216,-1.51092 0.3294,-0.474929 0.70468,-0.916349 1.12043,-1.317888 0.4159,-0.40136 0.87025,-0.7609 1.35647,-1.073409 0.48613,-0.312625 1.0018,-0.576724 1.53959,-0.788504 0.53775,-0.211814 1.09502,-0.370282 1.66377,-0.473118 0.56873,-0.102745 1.1462,-0.149377 1.72405,-0.139206 0.57786,0.01015 1.15333,0.07709 1.7181,0.199734 0.56478,0.122767 1.11614,0.300729 1.64611,0.531322 0.53002,0.230537 1.03608,0.512626 1.51091,0.842151 0.47476,0.329435 0.91601,0.704703 1.31738,1.120426 0.40154,0.415885 0.76125,0.870238 1.07392,1.356483 0.31262,0.486132 0.57673,1.001806 0.78851,1.539592 0.21163,0.537765 0.36993,1.095028 0.4726,1.66375 0.10275,0.568752 0.14937,1.146212 0.1392,1.724065 -0.003,0.192525 -0.0129,0.384909 -0.0288,0.57681 -0.016,0.191866 -0.0384,0.383152 -0.0669,0.573551 -0.0285,0.190325 -0.0632,0.379679 -0.10404,0.567733 -0.0408,0.18811 -0.0876,0.374821 -0.14061,0.559856 -0.0532,0.185018 -0.11245,0.368244 -0.17764,0.549385 -0.065,0.181224 -0.13587,0.360281 -0.21256,0.53687 -0.0769,0.176596 -0.15963,0.350616 -0.24796,0.521796 -0.0881,0.171064 -0.18168,0.3392 -0.28073,0.504143 -0.0992,0.165021 -0.20374,0.326759 -0.31343,0.485001 -0.10975,0.158154 -0.22472,0.312624 -0.34461,0.463231 -0.1199,0.150709 -0.24469,0.29745 -0.37418,0.439979 -0.1295,0.142393 -0.26362,0.280529 -0.40215,0.414152 -0.13841,0.133748 -0.28117,0.262943 -0.42804,0.387347 -0.14699,0.124404 -0.29804,0.243958 -0.45286,0.358471 -0.15473,0.114533 -0.31317,0.223963 -0.47506,0.328116 -0.16196,0.10412 -0.32728,0.202918 -0.4957,0.296223 -0.16832,0.09336 -0.33966,0.181191 -0.51372,0.263336 -0.17418,0.08205 -0.351,0.158438 -0.53017,0.228946 -0.17919,0.07047 -0.36062,0.134989 -0.54402,0.193554 -0.18332,0.05879 -0.36852,0.111553 -0.5553,0.158214 -0.18678,0.04643 -0.37503,0.08672 -0.56444,0.120829 -0.18956,0.03428 -0.38018,0.06223 -0.57156,0.08396 -0.19112,0.02185 -0.3829,0.03748 -0.57504,0.0467 -0.19234,0.0091 -0.38493,0.01193 -0.57746,0.0084 -0.30302,-0.0052 -0.60499,0.03727 -0.8948,0.125878 -0.28985,0.08862 -0.56393,0.222268 -0.81221,0.396089 -0.24837,0.173715 -0.46784,0.385433 -0.65037,0.627386 -0.18245,0.24202 -0.32565,0.511253 -0.42441,0.797782 -0.0987,0.286718 -0.15156,0.587187 -0.15675,0.890352 -0.005,0.302987 0.0369,0.604949 0.12536,0.89479 0.0886,0.28984 0.22227,0.563936 0.39609,0.812213 0.17391,0.248224 0.38581,0.467524 0.62791,0.649859 0.24203,0.182428 0.51097,0.326066 0.7978,0.424378 0.28654,0.09872 0.5868,0.151857 0.88982,0.157268 0.24658,0.0044 0.49322,0.0027 0.73971,-0.0056 0.24642,-0.0082 0.4926,-0.02265 0.73829,-0.04333 0.24576,-0.02068 0.49095,-0.04757 0.73534,-0.08058 0.24439,-0.03311 0.48791,-0.07243 0.73031,-0.117921 0.24232,-0.04534 0.48347,-0.09672 0.72319,-0.154218 0.23993,-0.05759 0.47836,-0.121349 0.71505,-0.191067 0.23648,-0.06966 0.47116,-0.145345 0.7038,-0.226922 0.23268,-0.08162 0.46325,-0.169031 0.6915,-0.262282 0.22835,-0.0933 0.45431,-0.192398 0.67764,-0.297164 0.22332,-0.104555 0.44395,-0.214767 0.66169,-0.330513 0.21777,-0.115842 0.43257,-0.237175 0.64418,-0.363901 0.21151,-0.126797 0.41978,-0.25894 0.6246,-0.396292 0.20489,-0.137261 0.40628,-0.27968 0.60395,-0.427146 0.19758,-0.147566 0.39138,-0.300124 0.58123,-0.457518 0.18989,-0.157386 0.37576,-0.319567 0.55744,-0.486362 0.18166,-0.166716 0.35908,-0.338001 0.53208,-0.513702 0.17308,-0.17569 0.3417,-0.355754 0.50567,-0.539991 0.16379,-0.184209 0.32289,-0.372529 0.47715,-0.564785 0.1545,-0.192363 0.30409,-0.388619 0.44864,-0.588556 0.14429,-0.199868 0.2835,-0.403362 0.41749,-0.610282 0.13429,-0.206998 0.26328,-0.417395 0.38684,-0.630987 0.12332,-0.213534 0.24122,-0.430155 0.35357,-0.64965 0.11254,-0.219347 0.2195,-0.441501 0.32079,-0.666265 0.10122,-0.224997 0.19674,-0.452523 0.28644,-0.682362 0.0897,-0.229636 0.17357,-0.461511 0.25153,-0.695382 0.078,-0.233933 0.15003,-0.469804 0.21608,-0.707383 0.0659,-0.237728 0.12578,-0.477083 0.17956,-0.717838 0.054,-0.240656 0.10182,-0.48264 0.14352,-0.725715 0.0417,-0.243074 0.0771,-0.487167 0.10642,-0.732038 0.0291,-0.244828 0.0521,-0.490351 0.0688,-0.736341 0.0169,-0.246029 0.0276,-0.492454 0.0321,-0.739025 z"
       style="fill:#ffffff;fill-opacity:1;stroke-width:0.264583px"
       id="path32" />
  </g>
</svg>
